<svg xmlns="http://www.w3.org/2000/svg" width="189" height="46" viewBox="0 0 189 46">
  <g id="Group_3845" data-name="Group 3845" transform="translate(-277 -20)">
    <g id="Group_497" data-name="Group 497" transform="translate(349.499 20)">
      <text id="Webllisto" transform="translate(-0.499 29)" fill="#fff" font-size="30" font-family="HelveticaNeue-Light, 'Helvetica 45'" font-weight="300"><tspan x="0" y="0">Webllisto</tspan></text>
      <text id="TECHNOLOGIES_PVT_LTD" data-name="TECHNOLOGIES PVT LTD" transform="translate(-0.499 44)" fill="#fff" font-size="9" font-family="HelveticaNeue-Roman, 'Helvetica 55 Roman'" letter-spacing="0.043em"><tspan x="0" y="0">TECHNOLOGIES PVT LTD</tspan></text>
    </g>
    <g id="Group_498" data-name="Group 498" transform="translate(277 26.134)">
      <path id="Path_2" data-name="Path 2" d="M39,73.623l9.019-9.332,9.763,9.332,18.771-19.8,9,9.129L66.911,82.366s-3.986,4.918-7.329,6.3-6.043-.771-8.727-3.406Z" transform="translate(-20.365 -53.823)" fill="#d8d8d8"/>
      <path id="Path_1" data-name="Path 1" d="M39,73.623l9.268-9.129,9.514,9.129,18.771-19.8,9.731,9.558L67.5,83.161s-4.574,4.122-7.917,5.5-6.043-.771-8.727-3.406Z" transform="translate(-39 -53.823)" fill="#fff" opacity="0.82"/>
    </g>
  </g>
</svg>
